<svg width="100" height="100" viewBox="0 0 100 100" fill="none" xmlns="http://www.w3.org/2000/svg">
<g clip-path="url(#clip0_448_407)">
<path d="M38.5876 7.40002C39.5723 5.19631 41.174 3.32482 43.1992 2.01157C45.2244 0.698332 47.5864 -0.000488281 50.0001 -0.000488281C52.4138 -0.000488281 54.7759 0.698332 56.8011 2.01157C58.8263 3.32482 60.428 5.19631 61.4127 7.40002C63.3672 5.98138 65.6909 5.15936 68.1028 5.03334C70.5146 4.90732 72.9114 5.48269 75.0031 6.6899C77.0949 7.89711 78.7922 9.68445 79.8898 11.8358C80.9873 13.9872 81.4381 16.4104 81.1876 18.8125C83.5898 18.5621 86.013 19.0129 88.1644 20.1104C90.3157 21.208 92.1031 22.9052 93.3103 24.997C94.5175 27.0888 95.0929 29.4855 94.9668 31.8974C94.8408 34.3092 94.0188 36.6329 92.6002 38.5875C94.8039 39.5722 96.6754 41.1739 97.9886 43.1991C99.3018 45.2242 100.001 47.5863 100.001 50C100.001 52.4137 99.3018 54.7758 97.9886 56.801C96.6754 58.8262 94.8039 60.4278 92.6002 61.4125C94.0188 63.3671 94.8408 65.6908 94.9668 68.1027C95.0929 70.5145 94.5175 72.9112 93.3103 75.003C92.1031 77.0948 90.3157 78.7921 88.1644 79.8896C86.013 80.9872 83.5898 81.438 81.1876 81.1875C81.4381 83.5897 80.9873 86.0129 79.8898 88.1642C78.7922 90.3156 77.0949 92.1029 75.0031 93.3101C72.9114 94.5174 70.5146 95.0927 68.1028 94.9667C65.6909 94.8407 63.3672 94.0187 61.4127 92.6C60.428 94.8037 58.8263 96.6752 56.8011 97.9885C54.7759 99.3017 52.4138 100.001 50.0001 100.001C47.5864 100.001 45.2244 99.3017 43.1992 97.9885C41.174 96.6752 39.5723 94.8037 38.5876 92.6C36.6331 94.0187 34.3094 94.8407 31.8975 94.9667C29.4856 95.0927 27.0889 94.5174 24.9971 93.3101C22.9054 92.1029 21.2081 90.3156 20.1105 88.1642C19.013 86.0129 18.5622 83.5897 18.8126 81.1875C16.4105 81.438 13.9873 80.9872 11.8359 79.8896C9.68457 78.7921 7.89723 77.0948 6.69002 75.003C5.48282 72.9112 4.90744 70.5145 5.03346 68.1027C5.15948 65.6908 5.98151 63.3671 7.40014 61.4125C5.19643 60.4278 3.32494 58.8262 2.0117 56.801C0.698454 54.7758 -0.000366211 52.4137 -0.000366211 50C-0.000366211 47.5863 0.698454 45.2242 2.0117 43.1991C3.32494 41.1739 5.19643 39.5722 7.40014 38.5875C5.98151 36.6329 5.15948 34.3092 5.03346 31.8974C4.90744 29.4855 5.48282 27.0888 6.69002 24.997C7.89723 22.9052 9.68457 21.208 11.8359 20.1104C13.9873 19.0129 16.4105 18.5621 18.8126 18.8125C18.5622 16.4104 19.013 13.9872 20.1105 11.8358C21.2081 9.68445 22.9054 7.89711 24.9971 6.6899C27.0889 5.48269 29.4856 4.90732 31.8975 5.03334C34.3094 5.15936 36.6331 5.98138 38.5876 7.40002ZM50.0001 6.25002C49.1644 6.25131 48.3374 6.42021 47.5681 6.7467C46.7988 7.0732 46.1028 7.55067 45.5212 8.15087C44.9397 8.75107 44.4844 9.46181 44.1824 10.241C43.8803 11.0203 43.7376 11.8522 43.7626 12.6875L43.8251 13.2563C43.9001 13.7375 44.0064 14.3563 44.1626 15.1063C44.4689 16.6125 44.9251 18.4938 45.4939 20.65C46.6314 24.95 48.1689 30.1063 49.7189 35.1125L50.0001 36.0125L50.2814 35.1125C51.8314 30.1125 53.3689 24.95 54.5064 20.65C55.0751 18.4938 55.5314 16.6125 55.8376 15.1063C56.0024 14.3076 56.1359 13.5028 56.2376 12.6938L56.2501 12.5C56.2501 10.8424 55.5917 9.2527 54.4196 8.0806C53.2475 6.9085 51.6577 6.25002 50.0001 6.25002ZM12.5001 56.25L12.6876 56.2375L13.2564 56.175C13.8763 56.0811 14.4933 55.9686 15.1064 55.8375C16.6126 55.5313 18.4939 55.075 20.6501 54.5063C25.4985 53.194 30.3203 51.7854 35.1126 50.2813L36.0126 50L35.1126 49.7188C30.3203 48.2147 25.4985 46.8061 20.6501 45.4938C18.8147 44.9996 16.9661 44.5557 15.1064 44.1625C14.3078 43.9977 13.503 43.8643 12.6939 43.7625L12.5001 43.75C10.8425 43.75 9.25282 44.4085 8.08072 45.5806C6.90862 46.7527 6.25014 48.3424 6.25014 50C6.25014 51.6576 6.90862 53.2473 8.08072 54.4194C9.25282 55.5915 10.8425 56.25 12.5001 56.25ZM56.2501 87.5L56.2376 87.3125C56.1358 86.5035 56.0024 85.6987 55.8376 84.9C55.4455 83.038 55.0016 81.1873 54.5064 79.35C53.1941 74.5016 51.7855 69.6799 50.2814 64.8875L50.0001 63.9875L49.7189 64.8875C48.1689 69.8875 46.6314 75.05 45.4939 79.35C44.9251 81.5063 44.4689 83.3875 44.1626 84.8938C43.9979 85.6924 43.8644 86.4972 43.7626 87.3063L43.7501 87.5C43.7501 89.1576 44.4086 90.7473 45.5807 91.9194C46.7528 93.0916 48.3425 93.75 50.0001 93.75C51.6577 93.75 53.2475 93.0916 54.4196 91.9194C55.5917 90.7473 56.2501 89.1576 56.2501 87.5ZM20.6501 74.1625L20.8064 74.0563C21.4576 73.5645 22.0894 73.0475 22.7001 72.5063C23.8501 71.4813 25.2501 70.15 26.8314 68.575C30.3762 65.0153 33.8498 61.3854 37.2501 57.6875L37.8939 56.9938L36.9751 57.2C32.0708 58.2949 27.1886 59.4868 22.3314 60.775C20.1814 61.3563 18.3314 61.9 16.8689 62.3875C16.0935 62.6453 15.3283 62.933 14.5751 63.25L14.4064 63.3375C13.6899 63.7449 13.061 64.29 12.556 64.9414C12.051 65.5929 11.6798 66.3377 11.4638 67.1332C11.2479 67.9286 11.1914 68.759 11.2976 69.5763C11.4039 70.3937 11.6707 71.182 12.0829 71.8958C12.495 72.6096 13.0443 73.2349 13.699 73.7356C14.3538 74.2363 15.1011 74.6025 15.898 74.8131C16.6948 75.0238 17.5255 75.0748 18.3422 74.9631C19.1588 74.8515 19.9453 74.5794 20.6564 74.1625H20.6501ZM28.1251 87.8875C29.5606 88.7163 31.2666 88.9409 32.8676 88.5119C34.4687 88.0829 35.8338 87.0355 36.6626 85.6L36.7501 85.4313C36.8126 85.3063 36.8814 85.1313 36.9751 84.9063C37.205 84.3231 37.4176 83.7333 37.6126 83.1375C38.1001 81.6813 38.6439 79.825 39.2251 77.675C40.5138 72.818 41.7057 67.9358 42.8001 63.0313L43.0064 62.1125L42.3189 62.75C38.6192 66.1506 34.9872 69.6242 31.4251 73.1688C30.0782 74.5085 28.7674 75.884 27.4939 77.2938C26.9529 77.9068 26.4358 78.5406 25.9439 79.1938L25.8376 79.35C25.0089 80.7855 24.7843 82.4914 25.2133 84.0925C25.6423 85.6936 26.6897 87.0587 28.1251 87.8875ZM85.6002 36.6625C87.0239 35.8278 88.0598 34.4639 88.4816 32.8683C88.9035 31.2727 88.6771 29.575 87.8519 28.1457C87.0266 26.7164 85.6696 25.6715 84.0768 25.2391C82.484 24.8067 80.7849 25.0218 79.3502 25.8375L79.1939 25.9438C78.5425 26.4353 77.9107 26.9523 77.3001 27.4938C75.8875 28.7663 74.5099 30.0772 73.1689 31.425C69.6243 34.9849 66.1507 38.6148 62.7501 42.3125L62.1126 43.0063L63.0314 42.8C67.9338 41.7055 72.8139 40.5136 77.6689 39.225C79.8251 38.6438 81.6814 38.1 83.1376 37.6125C83.9132 37.3552 84.6784 37.0674 85.4314 36.75C85.4885 36.7225 85.5448 36.6933 85.6002 36.6625ZM71.8752 12.1125C70.4397 11.2838 68.7337 11.0592 67.1327 11.4881C65.5316 11.9171 64.1665 12.9646 63.3376 14.4L63.2501 14.5688C63.1876 14.6938 63.1189 14.8688 63.0251 15.0938C62.7953 15.6769 62.5827 16.2668 62.3876 16.8625C61.9001 18.3188 61.3564 20.175 60.7752 22.3313C59.4866 27.1863 58.2947 32.0664 57.2001 36.9688L56.9939 37.8875L57.6814 37.25C61.3811 33.8494 65.0131 30.3758 68.5751 26.8313C70.1502 25.25 71.4814 23.85 72.5064 22.7063C73.0477 22.0935 73.5648 21.4596 74.0564 20.8063L74.1626 20.65C74.9914 19.2145 75.216 17.5086 74.787 15.9075C74.358 14.3064 73.3106 12.9413 71.8752 12.1125ZM87.5002 56.25C89.1578 56.25 90.7475 55.5915 91.9196 54.4194C93.0917 53.2473 93.7502 51.6576 93.7502 50C93.7502 48.3424 93.0917 46.7527 91.9196 45.5806C90.7475 44.4085 89.1578 43.75 87.5002 43.75L87.3127 43.7625C86.5036 43.8643 85.6988 43.9977 84.9001 44.1625C83.3876 44.4688 81.5064 44.925 79.3502 45.4938C75.0502 46.6313 69.8939 48.1688 64.8876 49.7188L63.9876 50L64.8876 50.2813C69.8876 51.8313 75.0502 53.3688 79.3502 54.5063C81.5064 55.075 83.3876 55.5313 84.8939 55.8375C85.6925 56.0023 86.4973 56.1357 87.3064 56.2375L87.5002 56.25ZM12.1126 28.125C11.6952 28.8496 11.4274 29.6506 11.3251 30.4806C11.2228 31.3105 11.2881 32.1526 11.5172 32.9568C11.7462 33.7611 12.1343 34.5112 12.6585 35.1628C13.1827 35.8143 13.8323 36.3541 14.5689 36.75L15.0939 36.9688C15.5439 37.1563 16.1314 37.3688 16.8626 37.6125C18.3189 38.1 20.1751 38.6438 22.3251 39.225C27.1823 40.5133 32.0645 41.7052 36.9689 42.8L37.8876 43.0063L37.2439 42.3125C33.8456 38.6147 30.3741 34.9848 26.8314 31.425C25.4924 30.0773 24.1169 28.7664 22.7064 27.4938C22.0936 26.9524 21.4598 26.4354 20.8064 25.9438L20.6501 25.8375C19.2146 25.0088 17.5087 24.7842 15.9076 25.2132C14.3066 25.6421 12.9415 26.6896 12.1126 28.125ZM25.8376 20.65L25.9439 20.8063C26.4356 21.4575 26.9527 22.0893 27.4939 22.7C28.5189 23.85 29.8501 25.25 31.4251 26.8313C34.9849 30.3761 38.6147 33.8497 42.3126 37.25L43.0064 37.8875L42.8001 36.9688C41.7057 32.0664 40.5138 27.1862 39.2251 22.3313C38.6439 20.175 38.1001 18.3188 37.6126 16.8625C37.3552 16.087 37.0675 15.3218 36.7501 14.5688L36.6626 14.4C36.2553 13.6835 35.7102 13.0546 35.0587 12.5496C34.4073 12.0446 33.6624 11.6734 32.867 11.4575C32.0715 11.2415 31.2412 11.185 30.4238 11.2913C29.6065 11.3975 28.8182 11.6644 28.1043 12.0765C27.3905 12.4886 26.7653 13.0379 26.2646 13.6926C25.7639 14.3474 25.3977 15.0947 25.187 15.8916C24.9763 16.6885 24.9254 17.5191 25.037 18.3358C25.1487 19.1525 25.4208 19.939 25.8376 20.65ZM87.8876 71.875C88.7164 70.4395 88.941 68.7336 88.512 67.1325C88.083 65.5314 87.0356 64.1664 85.6002 63.3375L85.4314 63.25C84.6784 62.9326 83.9132 62.6449 83.1376 62.3875C81.6814 61.9 79.8251 61.3563 77.6689 60.775C72.8139 59.4864 67.9338 58.2945 63.0314 57.2L62.1126 56.9938L62.7501 57.6875C66.1507 61.3853 69.6243 65.0152 73.1689 68.575C74.7502 70.15 76.1501 71.4813 77.2939 72.5063C77.9065 73.0479 78.5403 73.5649 79.1939 74.0563L79.3502 74.1625C80.7856 74.9913 82.4916 75.2159 84.0926 74.7869C85.6937 74.3579 87.0588 73.3105 87.8876 71.875ZM63.3376 85.6C64.1723 87.0238 65.5363 88.0597 67.1319 88.4815C68.7275 88.9034 70.4252 88.677 71.8545 87.8517C73.2838 87.0265 74.3287 85.6694 74.7611 84.0767C75.1935 82.4839 74.9784 80.7848 74.1626 79.35L74.0564 79.1938C73.5643 78.5428 73.0473 77.9111 72.5064 77.3C71.2338 75.8874 69.9229 74.5098 68.5751 73.1688C65.0156 69.6238 61.3857 66.1502 57.6876 62.75L56.9939 62.1125L57.2001 63.0313C58.2946 67.9337 59.4865 72.8138 60.7752 77.6688C61.3564 79.825 61.9001 81.6813 62.3876 83.1375C62.645 83.9131 62.9327 84.6783 63.2501 85.4313C63.2778 85.4883 63.307 85.5446 63.3376 85.6ZM50.0001 59.375C52.4865 59.375 54.8711 58.3873 56.6293 56.6292C58.3874 54.871 59.3751 52.4864 59.3751 50C59.3751 47.5136 58.3874 45.1291 56.6293 43.3709C54.8711 41.6127 52.4865 40.625 50.0001 40.625C47.5137 40.625 45.1292 41.6127 43.371 43.3709C41.6129 45.1291 40.6251 47.5136 40.6251 50C40.6251 52.4864 41.6129 54.871 43.371 56.6292C45.1292 58.3873 47.5137 59.375 50.0001 59.375Z" fill="#8A1B1B"/>
</g>
<defs>
<clipPath id="clip0_448_407">
<rect width="100" height="100" fill="white"/>
</clipPath>
</defs>
</svg>
