<svg width="40" height="40" viewBox="0 0 40 40" fill="none" xmlns="http://www.w3.org/2000/svg">
<g clip-path="url(#clip0_128_3035)">
<path d="M15.4351 2.96005C15.829 2.07857 16.4696 1.32997 17.2797 0.804672C18.0898 0.279376 19.0346 -0.000152588 20.0001 -0.000152588C20.9656 -0.000152588 21.9104 0.279376 22.7205 0.804672C23.5305 1.32997 24.1712 2.07857 24.5651 2.96005C25.3469 2.3926 26.2764 2.06379 27.2411 2.01338C28.2059 1.96297 29.1646 2.19312 30.0013 2.676C30.838 3.15889 31.5169 3.87382 31.9559 4.73436C32.3949 5.5949 32.5753 6.5642 32.4751 7.52505C33.4359 7.42487 34.4052 7.60519 35.2658 8.04421C36.1263 8.48322 36.8412 9.16214 37.3241 9.99885C37.807 10.8356 38.0372 11.7943 37.9868 12.759C37.9363 13.7237 37.6075 14.6532 37.0401 15.435C37.9216 15.8289 38.6702 16.4696 39.1955 17.2797C39.7208 18.0897 40.0003 19.0346 40.0003 20C40.0003 20.9655 39.7208 21.9104 39.1955 22.7204C38.6702 23.5305 37.9216 24.1712 37.0401 24.5651C37.6075 25.3469 37.9363 26.2764 37.9868 27.2411C38.0372 28.2058 37.807 29.1645 37.3241 30.0012C36.8412 30.838 36.1263 31.5169 35.2658 31.9559C34.4052 32.3949 33.4359 32.5752 32.4751 32.475C32.5753 33.4359 32.3949 34.4052 31.9559 35.2657C31.5169 36.1263 30.838 36.8412 30.0013 37.3241C29.1646 37.807 28.2059 38.0371 27.2411 37.9867C26.2764 37.9363 25.3469 37.6075 24.5651 37.04C24.1712 37.9215 23.5305 38.6701 22.7205 39.1954C21.9104 39.7207 20.9656 40.0002 20.0001 40.0002C19.0346 40.0002 18.0898 39.7207 17.2797 39.1954C16.4696 38.6701 15.829 37.9215 15.4351 37.04C14.6532 37.6075 13.7238 37.9363 12.759 37.9867C11.7943 38.0371 10.8356 37.807 9.99888 37.3241C9.16217 36.8412 8.48326 36.1263 8.04424 35.2657C7.60522 34.4052 7.4249 33.4359 7.52508 32.475C6.56423 32.5752 5.59493 32.3949 4.73439 31.9559C3.87385 31.5169 3.15892 30.838 2.67603 30.0012C2.19315 29.1645 1.963 28.2058 2.01341 27.2411C2.06382 26.2764 2.39263 25.3469 2.96008 24.5651C2.0786 24.1712 1.33 23.5305 0.804703 22.7204C0.279406 21.9104 -0.00012207 20.9655 -0.00012207 20C-0.00012207 19.0346 0.279406 18.0897 0.804703 17.2797C1.33 16.4696 2.0786 15.8289 2.96008 15.435C2.39263 14.6532 2.06382 13.7237 2.01341 12.759C1.963 11.7943 2.19315 10.8356 2.67603 9.99885C3.15892 9.16214 3.87385 8.48322 4.73439 8.04421C5.59493 7.60519 6.56423 7.42487 7.52508 7.52505C7.4249 6.5642 7.60522 5.5949 8.04424 4.73436C8.48326 3.87382 9.16217 3.15889 9.99888 2.676C10.8356 2.19312 11.7943 1.96297 12.759 2.01338C13.7238 2.06379 14.6532 2.3926 15.4351 2.96005ZM20.0001 2.50005C19.6658 2.50057 19.335 2.56812 19.0273 2.69872C18.7195 2.82932 18.4411 3.02031 18.2085 3.26039C17.9759 3.50047 17.7938 3.78476 17.673 4.09646C17.5521 4.40815 17.4951 4.74091 17.5051 5.07505L17.5301 5.30255C17.5601 5.49505 17.6026 5.74255 17.6651 6.04255C17.7876 6.64505 17.9701 7.39755 18.1976 8.26005C18.6526 9.98005 19.2676 12.0425 19.8876 14.045L20.0001 14.405L20.1126 14.045C20.7326 12.045 21.3476 9.98005 21.8026 8.26005C22.0301 7.39755 22.2126 6.64505 22.3351 6.04255C22.401 5.72309 22.4544 5.40118 22.4951 5.07755L22.5001 5.00005C22.5001 4.33701 22.2367 3.70112 21.7678 3.23228C21.299 2.76344 20.6631 2.50005 20.0001 2.50005ZM5.00008 22.5L5.07508 22.4951L5.30258 22.47C5.55055 22.4325 5.79733 22.3875 6.04258 22.335C6.64508 22.2125 7.39758 22.03 8.26008 21.8025C10.1994 21.2776 12.1281 20.7142 14.0451 20.1125L14.4051 20L14.0451 19.8875C12.1281 19.2859 10.1994 18.7225 8.26008 18.1975C7.5259 17.9999 6.78646 17.8223 6.04258 17.665C5.72313 17.5991 5.40121 17.5457 5.07758 17.505L5.00008 17.5C4.33704 17.5 3.70115 17.7634 3.23231 18.2323C2.76347 18.7011 2.50008 19.337 2.50008 20C2.50008 20.6631 2.76347 21.299 3.23231 21.7678C3.70115 22.2367 4.33704 22.5 5.00008 22.5ZM22.5001 35L22.4951 34.925C22.4543 34.6014 22.401 34.2795 22.3351 33.96C22.1782 33.2152 22.0007 32.475 21.8026 31.74C21.2777 29.8007 20.7142 27.872 20.1126 25.955L20.0001 25.595L19.8876 25.955C19.2676 27.955 18.6526 30.0201 18.1976 31.74C17.9701 32.6026 17.7876 33.355 17.6651 33.9575C17.5992 34.277 17.5458 34.5989 17.5051 34.9225L17.5001 35C17.5001 35.6631 17.7635 36.299 18.2323 36.7678C18.7012 37.2367 19.337 37.5 20.0001 37.5C20.6631 37.5 21.299 37.2367 21.7678 36.7678C22.2367 36.299 22.5001 35.6631 22.5001 35ZM8.26008 29.665L8.32258 29.6225C8.58308 29.4258 8.83577 29.219 9.08008 29.0025C9.54008 28.5925 10.1001 28.06 10.7326 27.43C12.1505 26.0062 13.5399 24.5542 14.9001 23.075L15.1576 22.7976L14.7901 22.88C12.8283 23.318 10.8754 23.7948 8.93258 24.31C8.07258 24.5425 7.33258 24.76 6.74758 24.955C6.43741 25.0582 6.13134 25.1732 5.83008 25.3L5.76258 25.335C5.47597 25.498 5.22442 25.716 5.02241 25.9766C4.82041 26.2372 4.67194 26.5351 4.58556 26.8533C4.49917 27.1715 4.47658 27.5036 4.51907 27.8306C4.56157 28.1575 4.66832 28.4728 4.83317 28.7584C4.99802 29.0439 5.21773 29.294 5.47963 29.4943C5.74153 29.6945 6.04047 29.841 6.35921 29.9253C6.67796 30.0096 7.01023 30.03 7.33689 29.9853C7.66355 29.9406 7.97815 29.8318 8.26258 29.665H8.26008ZM11.2501 35.155C11.8243 35.4866 12.5066 35.5764 13.1471 35.4048C13.7875 35.2332 14.3335 34.8142 14.6651 34.24L14.7001 34.1725C14.7251 34.1225 14.7526 34.0525 14.7901 33.9625C14.882 33.7293 14.9671 33.4933 15.0451 33.255C15.2401 32.6726 15.4576 31.93 15.6901 31.07C16.2056 29.1272 16.6823 27.1743 17.1201 25.2125L17.2026 24.845L16.9276 25.1C15.4477 26.4603 13.9949 27.8497 12.5701 29.2675C12.0313 29.8034 11.507 30.3536 10.9976 30.9175C10.7812 31.1628 10.5743 31.4163 10.3776 31.6775L10.3351 31.74C10.0036 32.3142 9.91374 32.9966 10.0853 33.637C10.2569 34.2775 10.6759 34.8235 11.2501 35.155ZM34.2401 14.665C34.8096 14.3312 35.2239 13.7856 35.3927 13.1473C35.5614 12.5091 35.4709 11.83 35.1408 11.2583C34.8107 10.6866 34.2678 10.2686 33.6307 10.0957C32.9936 9.92271 32.314 10.0088 31.7401 10.335L31.6776 10.3775C31.417 10.5741 31.1643 10.781 30.9201 10.9976C30.355 11.5066 29.804 12.0309 29.2676 12.57C27.8497 13.994 26.4603 15.4459 25.1001 16.925L24.8451 17.2025L25.2126 17.12C27.1735 16.6823 29.1256 16.2055 31.0676 15.6901C31.9301 15.4576 32.6726 15.24 33.2551 15.045C33.5653 14.9421 33.8714 14.827 34.1726 14.7C34.1954 14.689 34.2179 14.6774 34.2401 14.665ZM28.7501 4.84505C28.1759 4.51354 27.4935 4.42371 26.8531 4.5953C26.2126 4.7669 25.6666 5.18587 25.3351 5.76005L25.3001 5.82755C25.2751 5.87755 25.2476 5.94755 25.2101 6.03755C25.1181 6.27082 25.0331 6.50675 24.9551 6.74505C24.7601 7.32755 24.5426 8.07005 24.3101 8.93255C23.7946 10.8745 23.3179 12.8266 22.8801 14.7875L22.7976 15.155L23.0726 14.9C24.5525 13.5398 26.0053 12.1504 27.4301 10.7325C28.0601 10.1 28.5926 9.54005 29.0026 9.08255C29.2191 8.83742 29.4259 8.58389 29.6226 8.32255L29.6651 8.26005C29.9966 7.68585 30.0864 7.00349 29.9148 6.36305C29.7432 5.72262 29.3243 5.17658 28.7501 4.84505ZM35.0001 22.5C35.6631 22.5 36.299 22.2367 36.7678 21.7678C37.2367 21.299 37.5001 20.6631 37.5001 20C37.5001 19.337 37.2367 18.7011 36.7678 18.2323C36.299 17.7634 35.6631 17.5 35.0001 17.5L34.9251 17.505C34.6014 17.5458 34.2795 17.5991 33.9601 17.665C33.3551 17.7875 32.6026 17.97 31.7401 18.1975C30.0201 18.6525 27.9576 19.2675 25.9551 19.8875L25.5951 20L25.9551 20.1125C27.9551 20.7325 30.0201 21.3475 31.7401 21.8025C32.6026 22.03 33.3551 22.2125 33.9576 22.335C34.277 22.401 34.5989 22.4543 34.9226 22.4951L35.0001 22.5ZM4.84508 11.25C4.6781 11.5399 4.57098 11.8603 4.53007 12.1923C4.48916 12.5243 4.51528 12.8611 4.6069 13.1828C4.69851 13.5045 4.85376 13.8045 5.06343 14.0652C5.27311 14.3258 5.53296 14.5417 5.82758 14.7L6.03758 14.7875C6.21758 14.8625 6.45258 14.9475 6.74508 15.045C7.32758 15.24 8.07008 15.4576 8.93008 15.6901C10.8729 16.2053 12.8258 16.6821 14.7876 17.12L15.1551 17.2025L14.8976 16.925C13.5383 15.4459 12.1497 13.9939 10.7326 12.57C10.197 12.031 9.64678 11.5066 9.08258 10.9976C8.83746 10.781 8.58393 10.5742 8.32258 10.3775L8.26008 10.335C7.68588 10.0035 7.00352 9.91371 6.36308 10.0853C5.72265 10.2569 5.17661 10.6759 4.84508 11.25ZM10.3351 8.26005L10.3776 8.32255C10.5743 8.58305 10.7811 8.83575 10.9976 9.08005C11.4076 9.54005 11.9401 10.1 12.5701 10.7325C13.994 12.1505 15.4459 13.5399 16.9251 14.9L17.2026 15.155L17.1201 14.7875C16.6823 12.8266 16.2055 10.8745 15.6901 8.93255C15.4576 8.07005 15.2401 7.32755 15.0451 6.74505C14.9421 6.43483 14.827 6.12876 14.7001 5.82755L14.6651 5.76005C14.5021 5.47343 14.2841 5.22189 14.0235 5.01988C13.7629 4.81788 13.465 4.66941 13.1468 4.58302C12.8286 4.49664 12.4965 4.47405 12.1696 4.51654C11.8426 4.55904 11.5273 4.66579 11.2418 4.83064C10.9562 4.99549 10.7061 5.2152 10.5059 5.4771C10.3056 5.739 10.1591 6.03794 10.0748 6.35668C9.99056 6.67543 9.97017 7.0077 10.0148 7.33436C10.0595 7.66102 10.1683 7.97562 10.3351 8.26005ZM35.1551 28.75C35.4866 28.1759 35.5764 27.4935 35.4048 26.8531C35.2332 26.2126 34.8143 25.6666 34.2401 25.335L34.1726 25.3C33.8714 25.1731 33.5653 25.058 33.2551 24.955C32.6726 24.76 31.9301 24.5425 31.0676 24.31C29.1256 23.7946 27.1735 23.3179 25.2126 22.88L24.8451 22.7976L25.1001 23.075C26.4603 24.5541 27.8497 26.0061 29.2676 27.43C29.9001 28.06 30.4601 28.5925 30.9176 29.0025C31.1626 29.2192 31.4161 29.426 31.6776 29.6225L31.7401 29.665C32.3143 29.9966 32.9966 30.0864 33.6371 29.9148C34.2775 29.7432 34.8235 29.3242 35.1551 28.75ZM25.3351 34.24C25.669 34.8096 26.2145 35.2239 26.8528 35.3926C27.491 35.5614 28.1701 35.4708 28.7418 35.1407C29.3135 34.8106 29.7315 34.2678 29.9045 33.6307C30.0774 32.9936 29.9914 32.3139 29.6651 31.74L29.6226 31.6775C29.4258 31.4172 29.2189 31.1645 29.0026 30.92C28.4936 30.355 27.9692 29.804 27.4301 29.2675C26.0063 27.8496 24.5543 26.4601 23.0751 25.1L22.7976 24.845L22.8801 25.2125C23.3179 27.1735 23.7946 29.1256 24.3101 31.0675C24.5426 31.93 24.7601 32.6726 24.9551 33.255C25.058 33.5653 25.1731 33.8714 25.3001 34.1725C25.3111 34.1954 25.3228 34.2179 25.3351 34.24ZM20.0001 23.75C20.9946 23.75 21.9485 23.355 22.6517 22.6517C23.355 21.9484 23.7501 20.9946 23.7501 20C23.7501 19.0055 23.355 18.0517 22.6517 17.3484C21.9485 16.6451 20.9946 16.25 20.0001 16.25C19.0055 16.25 18.0517 16.6451 17.3484 17.3484C16.6452 18.0517 16.2501 19.0055 16.2501 20C16.2501 20.9946 16.6452 21.9484 17.3484 22.6517C18.0517 23.355 19.0055 23.75 20.0001 23.75Z" fill="#8A1B1B"/>
</g>
<defs>
<clipPath id="clip0_128_3035">
<rect width="40" height="40" fill="white"/>
</clipPath>
</defs>
</svg>
